<mxfile host="app.diagrams.net" modified="2020-07-10T12:33:01.594Z" agent="5.0 (Windows NT 10.0; Win64; x64) AppleWebKit/537.36 (KHTML, like Gecko) Chrome/83.0.4103.116 Safari/537.36" etag="vuY6QeXIS-197raH7r6J" version="13.4.1" type="github">
  <diagram id="UBxYc-XZYOTBcjKCo5hw" name="Page-1">
    <mxGraphModel dx="2381" dy="410" grid="0" gridSize="10" guides="1" tooltips="1" connect="1" arrows="1" fold="1" page="0" pageScale="1" pageWidth="1100" pageHeight="850" math="0" shadow="0">
      <root>
        <mxCell id="0" />
        <mxCell id="1" parent="0" />
        <mxCell id="MgqnPycMExajalKyBslq-62" value="&lt;font style=&quot;font-size: 12px&quot;&gt;User&lt;/font&gt;" style="rounded=0;whiteSpace=wrap;html=1;strokeColor=#6C8EBF;" vertex="1" parent="1">
          <mxGeometry x="-1363" y="51" width="121" height="50" as="geometry" />
        </mxCell>
        <mxCell id="MgqnPycMExajalKyBslq-63" value="&lt;font style=&quot;font-size: 12px&quot;&gt;Settings Page&lt;/font&gt;" style="rounded=0;whiteSpace=wrap;html=1;strokeColor=#6C8EBF;" vertex="1" parent="1">
          <mxGeometry x="-1177" y="49" width="121" height="50" as="geometry" />
        </mxCell>
        <mxCell id="MgqnPycMExajalKyBslq-64" value="&lt;font style=&quot;font-size: 12px&quot;&gt;Home Page&lt;/font&gt;" style="rounded=0;whiteSpace=wrap;html=1;strokeColor=#6C8EBF;" vertex="1" parent="1">
          <mxGeometry x="-954" y="47" width="121" height="50" as="geometry" />
        </mxCell>
        <mxCell id="MgqnPycMExajalKyBslq-65" value="Simulator Play Page" style="rounded=0;whiteSpace=wrap;html=1;strokeColor=#6C8EBF;" vertex="1" parent="1">
          <mxGeometry x="-707" y="49" width="121" height="50" as="geometry" />
        </mxCell>
        <mxCell id="MgqnPycMExajalKyBslq-66" value="" style="endArrow=none;html=1;strokeColor=#6C8EBF;" edge="1" parent="1">
          <mxGeometry width="50" height="50" relative="1" as="geometry">
            <mxPoint x="-1303.17" y="359" as="sourcePoint" />
            <mxPoint x="-1303.17" y="101" as="targetPoint" />
          </mxGeometry>
        </mxCell>
        <mxCell id="MgqnPycMExajalKyBslq-67" value="" style="endArrow=none;html=1;strokeColor=#6C8EBF;" edge="1" parent="1">
          <mxGeometry width="50" height="50" relative="1" as="geometry">
            <mxPoint x="-1119" y="357" as="sourcePoint" />
            <mxPoint x="-1119" y="99" as="targetPoint" />
          </mxGeometry>
        </mxCell>
        <mxCell id="MgqnPycMExajalKyBslq-68" value="" style="endArrow=none;html=1;strokeColor=#6C8EBF;" edge="1" parent="1">
          <mxGeometry width="50" height="50" relative="1" as="geometry">
            <mxPoint x="-893" y="357" as="sourcePoint" />
            <mxPoint x="-893" y="99" as="targetPoint" />
          </mxGeometry>
        </mxCell>
        <mxCell id="MgqnPycMExajalKyBslq-69" value="" style="endArrow=none;html=1;strokeColor=#6C8EBF;" edge="1" parent="1">
          <mxGeometry width="50" height="50" relative="1" as="geometry">
            <mxPoint x="-649.0000000000001" y="359" as="sourcePoint" />
            <mxPoint x="-649.0000000000001" y="101" as="targetPoint" />
          </mxGeometry>
        </mxCell>
        <mxCell id="MgqnPycMExajalKyBslq-70" value="" style="endArrow=classic;html=1;strokeColor=#6C8EBF;" edge="1" parent="1">
          <mxGeometry width="50" height="50" relative="1" as="geometry">
            <mxPoint x="-1302" y="162" as="sourcePoint" />
            <mxPoint x="-1120" y="162" as="targetPoint" />
          </mxGeometry>
        </mxCell>
        <mxCell id="MgqnPycMExajalKyBslq-71" value="" style="endArrow=classic;html=1;strokeColor=#6C8EBF;" edge="1" parent="1">
          <mxGeometry width="50" height="50" relative="1" as="geometry">
            <mxPoint x="-1118" y="192" as="sourcePoint" />
            <mxPoint x="-894" y="192" as="targetPoint" />
          </mxGeometry>
        </mxCell>
        <mxCell id="MgqnPycMExajalKyBslq-72" value="" style="endArrow=classic;html=1;strokeColor=#6C8EBF;" edge="1" parent="1">
          <mxGeometry width="50" height="50" relative="1" as="geometry">
            <mxPoint x="-892" y="218" as="sourcePoint" />
            <mxPoint x="-651" y="218" as="targetPoint" />
          </mxGeometry>
        </mxCell>
        <mxCell id="MgqnPycMExajalKyBslq-74" value="" style="endArrow=none;html=1;strokeColor=#6C8EBF;" edge="1" parent="1">
          <mxGeometry width="50" height="50" relative="1" as="geometry">
            <mxPoint x="-438" y="359" as="sourcePoint" />
            <mxPoint x="-438" y="101" as="targetPoint" />
          </mxGeometry>
        </mxCell>
        <mxCell id="MgqnPycMExajalKyBslq-75" value="Device Adapters" style="rounded=0;whiteSpace=wrap;html=1;strokeColor=#6C8EBF;" vertex="1" parent="1">
          <mxGeometry x="-503" y="51" width="131" height="50" as="geometry" />
        </mxCell>
        <mxCell id="MgqnPycMExajalKyBslq-76" value="" style="endArrow=classic;html=1;strokeColor=#6C8EBF;" edge="1" parent="1">
          <mxGeometry width="50" height="50" relative="1" as="geometry">
            <mxPoint x="-648" y="277" as="sourcePoint" />
            <mxPoint x="-437" y="277" as="targetPoint" />
          </mxGeometry>
        </mxCell>
        <mxCell id="MgqnPycMExajalKyBslq-77" value="Click on Settings Tab" style="text;html=1;align=center;verticalAlign=middle;resizable=0;points=[];autosize=1;fontSize=10;" vertex="1" parent="1">
          <mxGeometry x="-1259" y="146" width="103" height="16" as="geometry" />
        </mxCell>
        <mxCell id="MgqnPycMExajalKyBslq-78" value="&lt;span style=&quot;color: rgb(0, 0, 0); font-family: helvetica; font-size: 10px; font-style: normal; font-weight: 400; letter-spacing: normal; text-align: center; text-indent: 0px; text-transform: none; word-spacing: 0px; background-color: rgb(248, 249, 250); display: inline; float: none;&quot;&gt;Specify Adapter and MQTT settings&lt;/span&gt;" style="text;whiteSpace=wrap;html=1;fontSize=10;" vertex="1" parent="1">
          <mxGeometry x="-1096.0033129882813" y="166.99665649414064" width="178" height="26" as="geometry" />
        </mxCell>
        <mxCell id="MgqnPycMExajalKyBslq-79" value="&amp;nbsp;Select Device Name and&amp;nbsp; Device cycle&amp;nbsp;&lt;br&gt;OR&lt;br&gt;Select a custom file and specify Device Name" style="text;html=1;align=center;verticalAlign=middle;resizable=0;points=[];autosize=1;fontSize=10;" vertex="1" parent="1">
          <mxGeometry x="-873" y="176" width="213" height="40" as="geometry" />
        </mxCell>
        <mxCell id="MgqnPycMExajalKyBslq-80" value="" style="endArrow=classic;html=1;strokeColor=#6C8EBF;" edge="1" parent="1">
          <mxGeometry width="50" height="50" relative="1" as="geometry">
            <mxPoint x="-893" y="262" as="sourcePoint" />
            <mxPoint x="-650" y="262" as="targetPoint" />
          </mxGeometry>
        </mxCell>
        <mxCell id="MgqnPycMExajalKyBslq-81" value="Click on Connect&amp;nbsp;" style="text;html=1;strokeColor=none;fillColor=none;align=center;verticalAlign=middle;whiteSpace=wrap;rounded=0;fontSize=10;" vertex="1" parent="1">
          <mxGeometry x="-815" y="239" width="104.5" height="20" as="geometry" />
        </mxCell>
        <mxCell id="MgqnPycMExajalKyBslq-82" value="Specify Play Count and Click Play&amp;nbsp;" style="text;html=1;strokeColor=none;fillColor=none;align=center;verticalAlign=middle;whiteSpace=wrap;rounded=0;fontSize=10;" vertex="1" parent="1">
          <mxGeometry x="-637" y="254" width="170" height="20" as="geometry" />
        </mxCell>
        <mxCell id="MgqnPycMExajalKyBslq-85" value="UCP" style="rounded=0;whiteSpace=wrap;html=1;strokeColor=#6C8EBF;" vertex="1" parent="1">
          <mxGeometry x="-298" y="51" width="131" height="50" as="geometry" />
        </mxCell>
        <mxCell id="MgqnPycMExajalKyBslq-86" value="" style="endArrow=none;html=1;strokeColor=#6C8EBF;" edge="1" parent="1">
          <mxGeometry width="50" height="50" relative="1" as="geometry">
            <mxPoint x="-233" y="359" as="sourcePoint" />
            <mxPoint x="-233" y="101" as="targetPoint" />
          </mxGeometry>
        </mxCell>
        <mxCell id="MgqnPycMExajalKyBslq-88" value="Publishes meaningful data&amp;nbsp;" style="text;html=1;strokeColor=none;fillColor=none;align=center;verticalAlign=middle;whiteSpace=wrap;rounded=0;fontSize=10;" vertex="1" parent="1">
          <mxGeometry x="-221" y="291" width="170" height="20" as="geometry" />
        </mxCell>
        <mxCell id="MgqnPycMExajalKyBslq-91" value="" style="endArrow=classic;html=1;strokeColor=#6C8EBF;" edge="1" parent="1">
          <mxGeometry width="50" height="50" relative="1" as="geometry">
            <mxPoint x="-436" y="308" as="sourcePoint" />
            <mxPoint x="-29" y="308" as="targetPoint" />
          </mxGeometry>
        </mxCell>
        <mxCell id="MgqnPycMExajalKyBslq-92" value="MQTT" style="rounded=0;whiteSpace=wrap;html=1;strokeColor=#6C8EBF;" vertex="1" parent="1">
          <mxGeometry x="-93" y="51" width="131" height="50" as="geometry" />
        </mxCell>
        <mxCell id="MgqnPycMExajalKyBslq-94" value="" style="endArrow=none;html=1;strokeColor=#6C8EBF;" edge="1" parent="1">
          <mxGeometry width="50" height="50" relative="1" as="geometry">
            <mxPoint x="-28" y="359" as="sourcePoint" />
            <mxPoint x="-28" y="101" as="targetPoint" />
          </mxGeometry>
        </mxCell>
        <mxCell id="MgqnPycMExajalKyBslq-95" value="" style="endArrow=classic;startArrow=classic;html=1;strokeColor=#6C8EBF;fontSize=10;" edge="1" parent="1">
          <mxGeometry width="50" height="50" relative="1" as="geometry">
            <mxPoint x="-437" y="294" as="sourcePoint" />
            <mxPoint x="-236" y="294" as="targetPoint" />
          </mxGeometry>
        </mxCell>
        <mxCell id="MgqnPycMExajalKyBslq-96" value="Request/Response" style="text;html=1;strokeColor=none;fillColor=none;align=center;verticalAlign=middle;whiteSpace=wrap;rounded=0;fontSize=10;" vertex="1" parent="1">
          <mxGeometry x="-422" y="274" width="170" height="20" as="geometry" />
        </mxCell>
      </root>
    </mxGraphModel>
  </diagram>
</mxfile>
